<svg width="22" height="22" viewBox="0 0 22 22" fill="none" xmlns="http://www.w3.org/2000/svg">
<path d="M13.75 4.58325V6.41658" stroke="#8B909A" stroke-width="1.75" stroke-linecap="round" stroke-linejoin="round"/>
<path d="M13.75 4.58325V6.41658" stroke="#8B909A" stroke-width="1.75" stroke-linecap="round" stroke-linejoin="round"/>
<path d="M13.75 10.0833V11.9166" stroke="#8B909A" stroke-width="1.75" stroke-linecap="round" stroke-linejoin="round"/>
<path d="M13.75 10.0833V11.9166" stroke="#8B909A" stroke-width="1.75" stroke-linecap="round" stroke-linejoin="round"/>
<path d="M13.75 15.5833V17.4166" stroke="#8B909A" stroke-width="1.75" stroke-linecap="round" stroke-linejoin="round"/>
<path d="M13.75 15.5833V17.4166" stroke="#8B909A" stroke-width="1.75" stroke-linecap="round" stroke-linejoin="round"/>
<path d="M4.58333 4.58325H17.4167C18.4292 4.58325 19.25 5.40406 19.25 6.41659V9.16658C18.2375 9.16658 17.4167 9.9874 17.4167 10.9999C17.4167 12.0124 18.2375 12.8333 19.25 12.8333V15.5833C19.25 16.5958 18.4292 17.4166 17.4167 17.4166H4.58333C3.57081 17.4166 2.75 16.5958 2.75 15.5833V12.8333C3.76252 12.8333 4.58333 12.0124 4.58333 10.9999C4.58333 9.9874 3.76252 9.16658 2.75 9.16658V6.41659C2.75 5.40406 3.57081 4.58325 4.58333 4.58325" stroke="#8B909A" stroke-width="1.75" stroke-linecap="round" stroke-linejoin="round"/>
<path d="M4.58333 4.58325H17.4167C18.4292 4.58325 19.25 5.40406 19.25 6.41659V9.16658C18.2375 9.16658 17.4167 9.9874 17.4167 10.9999C17.4167 12.0124 18.2375 12.8333 19.25 12.8333V15.5833C19.25 16.5958 18.4292 17.4166 17.4167 17.4166H4.58333C3.57081 17.4166 2.75 16.5958 2.75 15.5833V12.8333C3.76252 12.8333 4.58333 12.0124 4.58333 10.9999C4.58333 9.9874 3.76252 9.16658 2.75 9.16658V6.41659C2.75 5.40406 3.57081 4.58325 4.58333 4.58325" stroke="#8B909A" stroke-width="1.75" stroke-linecap="round" stroke-linejoin="round"/>
</svg>
